# xmcd
#
# Track frame offsets: 
#        150
#        17811
#        35589
#        55986
#        73983
#        91466
#        107429
#        125800
#        143774
#        160414
#        176700
#        196910
#
# Disc length: 2852 seconds
#
# Revision: 0
# Processed by: cddbd v1.5.1PL2 Copyright (c) Steve Scherf et al.
# Submitted via: ExactAudioCopy v0.95b3
#
DISCID=af0b220c
DTITLE=Siriporn Umpaipong - Sweet Acoustics
DYEAR=2005
DGENRE=Country
TTITLE0=Karuna yah plur jai
TTITLE1=Oak huk plor huk ai
TTITLE2=Raeng jai rai wun
TTITLE3=Kwam jon wud jai
TTITLE4=Yark luem fan kao
TTITLE5=Song khon bon tang jai
TTITLE6=Yark yoo ngieb ngieb song khon
TTITLE7=Khon nee la man
TTITLE8=Pae jai khon dee
TTITLE9=Parinya jai
TTITLE10=Puer mae pae bor dai
TTITLE11=Nhee mae ma pae ruk
EXTD=
EXTT0=
EXTT1=
EXTT2=
EXTT3=
EXTT4=
EXTT5=
EXTT6=
EXTT7=
EXTT8=
EXTT9=
EXTT10=
EXTT11=
PLAYORDER=
